<svg height="512" viewBox="0 0 512 512" width="512" xmlns="http://www.w3.org/2000/svg" xmlns:xlink="http://www.w3.org/1999/xlink"><linearGradient id="a" gradientUnits="userSpaceOnUse" x1="11.5" x2="542.348" y1="492.5" y2="-38.348" data-name="New Gradient Swatch 1"><stop offset="0" stop-color="#003f8a"/><stop offset=".518" stop-color="#00d7df"/><stop offset="1" stop-color="#006df0"/></linearGradient><linearGradient id="b" x1="-90.5" x2="440.348" xlink:href="#a" y1="390.5" y2="-140.348"/><linearGradient id="c" x1="-25.567" x2="505.282" xlink:href="#a" y1="455.433" y2="-75.415"/><linearGradient id="d" x1="1.499" x2="532.348" xlink:href="#a" y1="482.499" y2="-48.349"/><linearGradient id="e" x1="63.5" x2="594.348" xlink:href="#a" y1="544.5" y2="13.652"/><linearGradient id="f" x1="45.5" x2="576.348" xlink:href="#a" y1="526.5" y2="-4.348"/><linearGradient id="g" x1="93.5" x2="624.348" xlink:href="#a" y1="574.5" y2="43.652"/><linearGradient id="h" x1="-12.5" x2="518.348" xlink:href="#a" y1="468.5" y2="-62.348"/><linearGradient id="i" x1="91.5" x2="622.348" xlink:href="#a" y1="572.5" y2="41.652"/><linearGradient id="j" x1="73.5" x2="604.348" xlink:href="#a" y1="554.5" y2="23.652"/><linearGradient id="k" x1="121.5" x2="652.348" xlink:href="#a" y1="602.5" y2="71.652"/><linearGradient id="l" x1="15.5" x2="546.348" xlink:href="#a" y1="496.5" y2="-34.348"/><linearGradient id="m" x1="119.5" x2="650.348" xlink:href="#a" y1="600.5" y2="69.652"/><linearGradient id="n" x1="101.5" x2="632.348" xlink:href="#a" y1="582.5" y2="51.652"/><linearGradient id="o" x1="149.5" x2="680.348" xlink:href="#a" y1="630.5" y2="99.652"/><linearGradient id="p" x1="43.5" x2="574.348" xlink:href="#a" y1="524.5" y2="-6.348"/><linearGradient id="q" x1="-18.5" x2="512.348" xlink:href="#a" y1="462.5" y2="-68.348"/><linearGradient id="s" x1="57.5" x2="588.348" xlink:href="#a" y1="538.5" y2="7.652"/><linearGradient id="t" x1="69.5" x2="600.348" xlink:href="#a" y1="550.5" y2="19.652"/><g><path d="m424 8h-352a8 8 0 0 0 -8 8v480a8 8 0 0 0 8 8h352a8 8 0 0 0 8-8v-480a8 8 0 0 0 -8-8zm-8 480h-336v-464h336z" fill="url(#a)"/><path d="m256 32h-160a8 8 0 0 0 -8 8v168a8 8 0 0 0 8 8h160a8 8 0 0 0 8-8v-168a8 8 0 0 0 -8-8zm-32 168h-96v-12a12.01 12.01 0 0 1 12-12h13.38a23.99 23.99 0 0 0 45.24 0h13.38a12.01 12.01 0 0 1 12 12zm-24-100.35v21.15c0 12.9-10.54 23-24 23s-24-10.1-24-23v-11.55c11.23-.18 27.79-2.15 48-9.6zm-47.81-6.4a23.745 23.745 0 0 1 44.09-9.29c-18.77 7.18-33.94 9.09-44.09 9.29zm31.81 65.8v8.95a8 8 0 0 1 -16 0v-8.95a43.042 43.042 0 0 0 16 0zm64 40.95h-8v-12a28.031 28.031 0 0 0 -28-28h-12v-7.8a38.381 38.381 0 0 0 16-31.4v-24.6c0-.21-.01-.42-.02-.62-.74-21.85-18.39-39.38-39.98-39.38a40.04 40.04 0 0 0 -40 40v24.6a38.381 38.381 0 0 0 16 31.4v7.8h-12a28.031 28.031 0 0 0 -28 28v12h-8v-152h144z" fill="url(#b)"/><path d="m300 160h28a8 8 0 0 0 0-16h-28a12.013 12.013 0 0 1 -12-12v-24a12.013 12.013 0 0 1 12-12h28a8 8 0 0 0 0-16h-28a28.032 28.032 0 0 0 -28 28v24a28.032 28.032 0 0 0 28 28z" fill="url(#c)"/><path d="m368.51 154.809a8 8 0 0 0 14.98 0l24-64a8 8 0 1 0 -14.98-5.618l-16.51 44.025-16.51-44.025a8 8 0 1 0 -14.98 5.618z" fill="url(#d)"/><path d="m400 328h-256a8 8 0 0 0 0 16h256a8 8 0 0 0 0-16z" fill="url(#e)"/><path d="m144 368h136a8 8 0 0 0 0-16h-136a8 8 0 0 0 0 16z" fill="url(#f)"/><path d="m312 368a8 8 0 0 0 0-16h-8a8 8 0 0 0 0 16z" fill="url(#g)"/><path d="m96 368h24a8 8 0 0 0 8-8v-24a8 8 0 0 0 -8-8h-24a8 8 0 0 0 -8 8v24a8 8 0 0 0 8 8zm8-24h8v8h-8z" fill="url(#h)"/><path d="m400 384h-256a8 8 0 0 0 0 16h256a8 8 0 0 0 0-16z" fill="url(#i)"/><path d="m144 424h136a8 8 0 0 0 0-16h-136a8 8 0 0 0 0 16z" fill="url(#j)"/><path d="m312 424a8 8 0 0 0 0-16h-8a8 8 0 0 0 0 16z" fill="url(#k)"/><path d="m96 424h24a8 8 0 0 0 8-8v-24a8 8 0 0 0 -8-8h-24a8 8 0 0 0 -8 8v24a8 8 0 0 0 8 8zm8-24h8v8h-8z" fill="url(#l)"/><path d="m400 440h-256a8 8 0 0 0 0 16h256a8 8 0 0 0 0-16z" fill="url(#m)"/><path d="m280 464h-136a8 8 0 0 0 0 16h136a8 8 0 0 0 0-16z" fill="url(#n)"/><path d="m312 464h-8a8 8 0 0 0 0 16h8a8 8 0 0 0 0-16z" fill="url(#o)"/><path d="m96 480h24a8 8 0 0 0 8-8v-24a8 8 0 0 0 -8-8h-24a8 8 0 0 0 -8 8v24a8 8 0 0 0 8 8zm8-24h8v8h-8z" fill="url(#p)"/><path d="m96 312h160a8 8 0 0 0 8-8v-72a8 8 0 0 0 -8-8h-160a8 8 0 0 0 -8 8v72a8 8 0 0 0 8 8zm8-72h144v56h-144z" fill="url(#q)"/><path d="m280 240h120a8 8 0 0 0 0-16h-120a8 8 0 0 0 0 16z" fill="url(#f)"/><path d="m280 264h120a8 8 0 0 0 0-16h-120a8 8 0 0 0 0 16z" fill="url(#s)"/><g fill="url(#t)"><path d="m280 288h120a8 8 0 0 0 0-16h-120a8 8 0 0 0 0 16z"/><path d="m280 312h72a8 8 0 0 0 0-16h-72a8 8 0 0 0 0 16z"/></g></g></svg>