<svg id="Gradient" height="512" viewBox="0 0 512 512" width="512" xmlns="http://www.w3.org/2000/svg" xmlns:xlink="http://www.w3.org/1999/xlink"><linearGradient id="linear-gradient" gradientUnits="userSpaceOnUse" x1="256" x2="256" y1="456" y2="56"><stop offset="0" stop-color="#12bee5"/><stop offset=".5" stop-color="#c071e9"/><stop offset="1" stop-color="#f24f5a"/></linearGradient><path d="m125.657 101.657a8 8 0 0 1 -11.314 0l-24-24a8 8 0 0 1 11.314-11.314l24 24a8 8 0 0 1 0 11.314zm-11.314 148.686-24 24a8 8 0 0 0 11.314 11.314l24-24a8 8 0 0 0 -11.314-11.314zm-58.343-66.343h32a8 8 0 0 0 0-16h-32a8 8 0 0 0 0 16zm336-80a7.974 7.974 0 0 0 5.657-2.343l24-24a8 8 0 0 0 -11.314-11.314l-24 24a8 8 0 0 0 5.657 13.657zm-5.657 157.657 24 24a8 8 0 0 0 11.314-11.314l-24-24a8 8 0 0 0 -11.314 11.314zm37.657-93.657a8 8 0 0 0 0 16h32a8 8 0 0 0 0-16zm-57.926-26.794-45.4 52.963 15.133 68.1a8 8 0 0 1 -11.695 8.728l-68.112-37.846-68.115 37.842a8 8 0 0 1 -11.695-8.728l15.133-68.1-45.4-52.963a8 8 0 0 1 6.077-13.202h59.293l37.714-67.885a8 8 0 0 1 13.986 0l37.714 67.885h59.293a8 8 0 0 1 6.074 13.206zm-23.468 2.794h-46.606a8 8 0 0 1 -6.993-4.115l-33.007-59.412-33.007 59.412a8 8 0 0 1 -6.993 4.115h-46.606l36.68 42.794a8 8 0 0 1 1.736 6.941l-12.141 54.63 56.446-31.358a8 8 0 0 1 7.77 0l56.445 31.358-12.14-54.63a8 8 0 0 1 1.736-6.941zm153.394 256a56.063 56.063 0 0 1 -56 56h-368a56 56 0 0 1 0-112h368a56.063 56.063 0 0 1 56 56zm-16 0a40.045 40.045 0 0 0 -40-40h-368a40 40 0 0 0 0 80h368a40.045 40.045 0 0 0 40-40zm-16 0a24.028 24.028 0 0 1 -24 24h-368a24 24 0 0 1 0-48h368a24.028 24.028 0 0 1 24 24zm-392 8h8v-16h-8a8 8 0 0 0 0 16zm24 0h16v-16h-16zm32 0h16v-16h-16zm32 0h16v-16h-16zm32 0h16v-16h-16zm32 0h16v-16h-16zm32 0h16v-16h-16zm48 0v-16h-16v16zm144-8a8.009 8.009 0 0 0 -8-8h-120v16h120a8.009 8.009 0 0 0 8-8z" fill="url(#linear-gradient)"/></svg>